<svg width="26" height="54" viewBox="0 0 26 54" fill="none" xmlns="http://www.w3.org/2000/svg">
<path d="M14 33C12.6739 33 11.4021 32.4732 10.4645 31.5355C9.52678 30.5979 9 29.3261 9 28H11C11 28.7956 11.3161 29.5587 11.8787 30.1213C12.4413 30.6839 13.2044 31 14 31C14.7956 31 15.5587 30.6839 16.1213 30.1213C16.6839 29.5587 17 28.7956 17 28H19C19 29.3261 18.4732 30.5979 17.5355 31.5355C16.5979 32.4732 15.3261 33 14 33ZM14 23C14.7956 23 15.5587 23.3161 16.1213 23.8787C16.6839 24.4413 17 25.2044 17 26H11C11 25.2044 11.3161 24.4413 11.8787 23.8787C12.4413 23.3161 13.2044 23 14 23ZM21 26H19C19 25.3434 18.8707 24.6932 18.6194 24.0866C18.3681 23.48 17.9998 22.9288 17.5355 22.4645C17.0712 22.0002 16.52 21.6319 15.9134 21.3806C15.3068 21.1293 14.6566 21 14 21C12.6739 21 11.4021 21.5268 10.4645 22.4645C9.52678 23.4021 9 24.6739 9 26H7C5.89 26 5 26.89 5 28V40C5 40.5304 5.21071 41.0391 5.58579 41.4142C5.96086 41.7893 6.46957 42 7 42H21C21.5304 42 22.0391 41.7893 22.4142 41.4142C22.7893 41.0391 23 40.5304 23 40V28C23 27.4696 22.7893 26.9609 22.4142 26.5858C22.0391 26.2107 21.5304 26 21 26Z" fill="black"/>
</svg>
